<svg xmlns="http://www.w3.org/2000/svg" width="20" height="20" aria-labelledby="element" role="presentation" data-v-0f638f12=""><title id="element" lang="en" data-v-0f638f12="">element icon</title> <g fill="currentColor" data-v-0f638f12=""><svg viewBox="0 0 481 457" fill="none" xmlns="http://www.w3.org/2000/svg" data-v-0f638f12="" data-v-3aa7d81a=""><path fill-rule="evenodd" clip-rule="evenodd" d="M335.898 167.538C335.637 168.387 335.368 169.237 335.091 170.088C333.384 175.34 327.742 178.214 322.489 176.506C317.237 174.799 314.364 169.156 316.071 163.904C317.157 160.565 318.093 157.281 318.875 154.061C288.413 163.411 255.54 187.095 228.316 217.588C201.257 247.896 181.025 283.536 174.307 315.791L174.553 316.011C177.431 314.89 180.339 313.645 183.273 312.28C188.28 309.949 194.228 312.119 196.558 317.126C198.889 322.133 196.719 328.081 191.712 330.412C191.485 330.518 191.257 330.623 191.03 330.728L278.225 408.609C323.166 448.75 392.139 444.859 432.28 399.918C472.421 354.976 468.53 286.003 423.589 245.862L335.898 167.538ZM201.977 47.9212L303.209 138.341C271.213 150.709 239.329 175.223 213.397 204.269C187.754 232.99 166.92 267.271 157.435 300.721L56.613 210.668C11.6715 170.527 7.7801 101.554 47.9212 56.6129C88.0623 11.6715 157.035 7.78011 201.977 47.9212ZM215.3 33.0049C162.12 -14.4943 80.5041 -9.8896 33.0049 43.2899C-14.4943 96.4693 -9.88956 178.085 43.2899 225.585L264.902 423.526C318.081 471.025 399.697 466.42 447.197 413.241C494.696 360.061 490.091 278.445 436.912 230.946L215.3 33.0049ZM292.111 246.707C288.694 251.046 282.407 251.794 278.068 248.377C273.729 244.96 272.981 238.673 276.398 234.334C285.071 223.32 292.846 211.921 299.409 200.514C302.163 195.727 308.277 194.079 313.064 196.833C317.851 199.587 319.499 205.701 316.744 210.488C309.658 222.804 301.329 235.001 292.111 246.707ZM248.96 264.9C252.906 261.036 259.237 261.101 263.102 265.047C266.966 268.992 266.9 275.324 262.955 279.188C252.358 289.568 241.15 299.166 229.654 307.6C225.201 310.867 218.943 309.905 215.676 305.452C212.409 300.999 213.37 294.741 217.823 291.474C228.496 283.645 238.985 274.671 248.96 264.9Z" fill="black" data-v-0f638f12="" data-v-3aa7d81a=""></path></svg></g></svg>