<svg xmlns="http://www.w3.org/2000/svg" width="23" height="23" aria-labelledby="element" role="presentation" data-v-0f638f12=""><title id="element" lang="en" data-v-0f638f12="">element icon</title> <g fill="currentColor" data-v-0f638f12=""><svg id="Capa_1" enable-background="new 0 0 512 512" viewBox="0 0 512 512" xmlns="http://www.w3.org/2000/svg" data-v-0f638f12=""><g data-v-0f638f12=""><path d="m461.142 343.586v-175.162c0-17.145-9.523-32.564-24.854-40.238l-160.142-80.178c-12.616-6.316-27.678-6.315-40.292 0l-160.142 80.178c-15.331 7.675-24.854 23.094-24.854 40.239v175.162c0 17.146 9.524 32.564 24.856 40.239l160.142 80.167c12.584 6.299 27.734 6.284 40.288 0l160.143-80.167c15.33-7.675 24.855-23.094 24.855-40.24zm-220.142 89.433-151.857-76.019c-5.11-2.559-8.285-7.698-8.285-13.413v-169.416l160.142 80.175zm15-204.713-156.629-78.416 149.913-75.056c4.205-2.105 9.226-2.105 13.431 0l149.913 75.056zm175.142 115.28c0 5.715-3.175 10.855-8.285 13.413l-151.857 76.019v-178.672l160.142-80.175z" data-v-0f638f12=""></path></g></svg></g></svg>