<svg xmlns="http://www.w3.org/2000/svg" width="20" height="20" aria-labelledby="element" role="presentation" data-v-0f638f12=""><title id="element" lang="en" data-v-0f638f12="">element icon</title> <g fill="currentColor" data-v-0f638f12=""><svg viewBox="0 0 448 448" fill="none" xmlns="http://www.w3.org/2000/svg" data-v-0f638f12="" data-v-3aa7d81a=""><path fill-rule="evenodd" clip-rule="evenodd" d="M224 433C339.428 433 433 339.428 433 224C433 108.572 339.428 15 224 15C108.572 15 15 108.572 15 224C15 339.428 108.572 433 224 433ZM224 448C347.712 448 448 347.712 448 224C448 100.288 347.712 0 224 0C100.288 0 0 100.288 0 224C0 347.712 100.288 448 224 448Z" fill="black" data-v-0f638f12="" data-v-3aa7d81a=""></path> <path fill-rule="evenodd" clip-rule="evenodd" d="M438.603 206.43C441.661 203.636 441.875 198.892 439.082 195.834C436.288 192.776 431.544 192.562 428.486 195.355C423.739 199.692 418.878 203.907 413.91 207.996C410.712 210.628 410.253 215.355 412.885 218.553C415.517 221.751 420.244 222.21 423.442 219.578C428.61 215.325 433.665 210.941 438.603 206.43ZM395.349 240.641C398.773 238.308 399.657 233.643 397.325 230.22C394.993 226.796 390.327 225.912 386.904 228.244C381.594 231.862 376.185 235.345 370.683 238.689C367.144 240.841 366.019 245.454 368.17 248.994C370.322 252.533 374.935 253.659 378.475 251.507C384.199 248.028 389.826 244.404 395.349 240.641ZM14.9221 254.888C11.2015 253.068 10.1495 254.779 8.32883 258.5C6.50815 262.221 8.77942 266.679 12.5 268.5C15.2653 269.853 17.1629 271.145 19.0093 272.402C21.1687 273.872 23.2581 275.294 26.5835 276.712C30.394 278.336 34.7995 276.563 36.4236 272.753C38.0476 268.942 36.2752 264.537 32.4647 262.913C26.5366 260.386 20.6875 257.71 14.9221 254.888ZM347.671 268.362C351.392 266.541 352.932 262.049 351.111 258.328C349.29 254.608 344.798 253.068 341.078 254.888C335.312 257.71 329.463 260.386 323.535 262.913C319.725 264.537 317.952 268.942 319.576 272.753C321.2 276.563 325.606 278.336 329.416 276.712C335.585 274.082 341.672 271.297 347.671 268.362ZM64.0769 274.708C60.134 273.44 55.9089 275.607 54.6399 279.55C53.371 283.493 55.5387 287.718 59.4816 288.987C65.8327 291.031 72.2554 292.915 78.7451 294.635C82.7491 295.696 86.855 293.31 87.9159 289.306C88.9768 285.302 86.591 281.196 82.587 280.135C76.3511 278.483 70.1796 276.672 64.0769 274.708ZM296.518 288.987C300.461 287.718 302.629 283.493 301.36 279.55C300.091 275.607 295.866 273.44 291.923 274.708C285.82 276.672 279.649 278.483 273.413 280.135C269.409 281.196 267.023 285.302 268.084 289.306C269.145 293.31 273.251 295.696 277.255 294.635C283.745 292.915 290.167 291.031 296.518 288.987ZM115.562 287.277C111.478 286.586 107.607 289.336 106.915 293.42C106.224 297.505 108.975 301.376 113.059 302.067C119.627 303.178 126.252 304.124 132.928 304.899C137.042 305.377 140.765 302.429 141.243 298.315C141.721 294.2 138.773 290.477 134.659 290C128.241 289.254 121.874 288.345 115.562 287.277ZM242.941 302.067C247.025 301.376 249.776 297.505 249.084 293.42C248.393 289.336 244.522 286.586 240.438 287.277C234.126 288.345 227.759 289.254 221.341 290C217.227 290.477 214.279 294.2 214.757 298.315C215.235 302.429 218.958 305.377 223.072 304.899C229.748 304.124 236.373 303.178 242.941 302.067ZM168.324 292.377C164.183 292.271 160.74 295.542 160.635 299.682C160.529 303.823 163.8 307.266 167.94 307.372C171.283 307.457 174.637 307.5 178 307.5C181.363 307.5 184.717 307.457 188.06 307.372C192.2 307.266 195.471 303.823 195.365 299.682C195.26 295.542 191.817 292.271 187.676 292.377C184.461 292.459 181.235 292.5 178 292.5C174.765 292.5 171.539 292.459 168.324 292.377Z" fill="black" data-v-0f638f12="" data-v-3aa7d81a=""></path> <path fill-rule="evenodd" clip-rule="evenodd" d="M193.756 17.0961C196.088 13.6729 194.923 12.3323 191.5 10.0001C188.077 7.66797 183.832 9.07692 181.5 12.5001C179.733 15.0945 177.965 16.8623 176.227 18.6008C174.264 20.564 172.338 22.4896 170.493 25.5254C168.341 29.065 169.467 33.6785 173.006 35.83C176.546 37.9815 181.159 36.8562 183.311 33.3167C186.655 27.8145 190.139 22.406 193.756 17.0961ZM167.112 62.9222C168.932 59.2017 167.392 54.7097 163.672 52.889C159.951 51.0683 155.459 52.6085 153.638 56.329C150.703 62.3282 147.918 68.4147 145.288 74.5837C143.664 78.3941 145.437 82.7997 149.247 84.4238C153.058 86.0478 157.463 84.2753 159.087 80.4649C161.614 74.5367 164.29 68.6876 167.112 62.9222ZM147.292 112.077C148.561 108.134 146.393 103.909 142.45 102.64C138.507 101.371 134.282 103.539 133.013 107.482C130.969 113.833 129.085 120.256 127.365 126.745C126.304 130.749 128.69 134.855 132.694 135.916C136.698 136.977 140.804 134.591 141.865 130.587C143.517 124.351 145.328 118.18 147.292 112.077ZM134.723 163.562C135.414 159.478 132.664 155.607 128.58 154.916C124.496 154.225 120.625 156.975 119.933 161.059C118.822 167.628 117.876 174.252 117.101 180.928C116.623 185.042 119.571 188.765 123.685 189.243C127.8 189.721 131.523 186.773 132.001 182.659C132.746 176.241 133.655 169.874 134.723 163.562ZM129.624 216.324C129.729 212.183 126.458 208.74 122.318 208.635C118.177 208.529 114.734 211.8 114.628 215.941C114.543 219.284 114.5 222.637 114.5 226C114.5 229.363 114.543 232.717 114.628 236.06C114.734 240.201 118.177 243.471 122.318 243.366C126.458 243.26 129.729 239.817 129.624 235.676C129.541 232.461 129.5 229.236 129.5 226C129.5 222.765 129.541 219.539 129.624 216.324ZM132.001 269.341C131.523 265.227 127.8 262.279 123.685 262.757C119.571 263.235 116.623 266.958 117.101 271.072C117.876 277.748 118.822 284.373 119.933 290.941C120.625 295.025 124.496 297.776 128.58 297.085C132.664 296.394 135.414 292.523 134.723 288.438C133.655 282.126 132.746 275.759 132.001 269.341ZM141.865 321.413C140.804 317.409 136.698 315.023 132.694 316.084C128.69 317.145 126.304 321.251 127.365 325.255C129.085 331.745 130.969 338.167 133.013 344.518C134.282 348.461 138.507 350.629 142.45 349.36C146.393 348.091 148.56 343.866 147.292 339.923C145.328 333.82 143.517 327.649 141.865 321.413ZM159.087 371.535C157.463 367.725 153.058 365.952 149.247 367.576C145.437 369.201 143.664 373.606 145.288 377.417C147.918 383.586 150.703 389.672 153.638 395.671C155.459 399.392 159.951 400.932 163.672 399.111C167.392 397.291 168.932 392.799 167.112 389.078C164.29 383.313 161.614 377.464 159.087 371.535ZM183.311 418.684C181.159 415.144 176.546 414.019 173.006 416.17C169.467 418.322 168.341 422.935 170.493 426.475C172.312 429.468 174.346 431.245 176.41 433.049C178.295 434.695 180.204 436.364 182 439C184.332 442.423 187.077 443.332 190.5 441C191.085 440.602 191.633 440.261 192.128 439.954C194.532 438.462 195.69 437.743 193.756 434.904C190.139 429.594 186.655 424.186 183.311 418.684Z" fill="black" data-v-0f638f12="" data-v-3aa7d81a=""></path></svg></g></svg>