<svg xmlns="http://www.w3.org/2000/svg" width="20" height="20" aria-labelledby="element" role="presentation" data-v-0f638f12=""><title id="element" lang="en" data-v-0f638f12="">element icon</title> <g fill="currentColor" data-v-0f638f12=""><svg viewBox="0 0 460 476" fill="none" xmlns="http://www.w3.org/2000/svg" data-v-0f638f12="" data-v-3aa7d81a=""><path d="M230 0C103.417 0 0 106.666 0 237.837C0 379.818 113.345 475.673 230 475.673C356.583 475.673 460 369.007 460 237.837C460 106.666 356.583 0 230 0ZM443.453 230.63C438.489 227.747 432.698 225.584 425.252 224.143C421.115 223.422 416.151 225.584 415.324 229.188C414.496 232.792 416.978 237.116 421.115 237.837C438.489 242.161 438.489 245.765 443.453 247.206C443.453 248.647 443.453 249.368 443.453 250.81C443.453 257.296 423.597 266.665 392.986 266.665C363.201 266.665 342.518 257.296 342.518 250.81C342.518 247.927 346.655 244.323 353.273 242.161C357.41 240.72 359.065 236.395 357.41 232.792C355.755 229.188 350.791 227.747 346.655 229.188C345.827 229.909 344.173 229.909 343.345 230.63C340.036 177.296 302.806 134.053 253.165 123.243C253.993 121.08 253.165 118.198 250.683 116.035C247.374 113.153 242.41 113.153 239.101 116.756C235.791 119.639 233.309 121.08 230 121.08C218.417 121.08 205.18 98.0175 205.18 67.7474C205.18 37.4773 218.417 14.4143 230 14.4143C235.791 14.4143 239.928 19.4594 242.41 23.063C244.892 26.6665 249.856 27.3873 253.993 25.2251C257.302 23.063 258.129 19.4594 257.302 16.5765C359.892 30.2701 440.144 120.36 443.453 230.63ZM230 340.179C176.223 340.179 133.201 294.053 133.201 237.837C133.201 181.621 176.223 135.495 230 135.495C283.777 135.495 326.799 181.621 326.799 237.837C326.799 294.053 283.777 340.179 230 340.179ZM202.698 16.5765C194.424 28.8287 188.633 46.8466 188.633 67.7474C188.633 91.5311 195.252 111.711 206.007 123.963C157.194 134.774 119.964 178.017 116.655 231.35C111.691 228.467 105.899 226.305 98.4532 224.864C94.3166 224.143 89.3525 226.305 88.5252 229.909C87.6978 233.512 90.1799 237.837 94.3166 238.557C111.691 242.882 111.691 246.485 116.655 247.927C117.482 262.341 82.7338 266.665 66.187 266.665C38.0576 266.665 19.0288 258.737 16.5468 252.251C16.5468 251.53 16.5468 250.81 16.5468 250.089C17.3741 247.206 21.5108 244.323 27.3022 242.161C31.4389 240.72 33.0935 236.395 31.4389 232.792C29.7842 229.188 23.9928 227.026 19.8561 229.188C19.0288 229.909 17.3741 229.909 16.5468 230.63C19.8561 120.36 100.108 30.2701 202.698 16.5765ZM19.0288 272.431C30.6115 277.476 47.9856 281.08 66.187 281.08C89.3525 281.08 108.381 276.755 119.964 268.828C131.547 310.629 163.813 342.341 205.18 351.71C194.424 363.962 187.806 384.142 187.806 407.926C187.806 428.827 192.77 446.845 201.871 459.097C108.381 446.845 33.9209 369.728 19.0288 272.431ZM253.165 459.818C253.165 458.376 252.338 457.655 250.683 456.214C247.374 453.331 242.41 453.331 239.101 456.935C235.791 459.818 233.309 461.259 230 461.259C218.417 461.259 205.18 438.196 205.18 407.926C205.18 377.656 218.417 354.593 230 354.593C235.791 354.593 239.928 359.638 242.41 363.241C244.892 366.845 249.856 367.566 253.993 365.404C258.13 363.241 258.957 358.917 256.475 355.314C255.647 353.872 254.82 353.151 253.993 351.71C295.36 342.341 328.453 310.629 339.209 268.828C350.791 276.035 370.647 280.359 392.986 280.359C412.014 280.359 429.388 276.755 440.971 271.71C426.079 371.169 349.137 449.007 253.165 459.818Z" fill="black" data-v-0f638f12="" data-v-3aa7d81a=""></path> <path d="M373.957 236.396C376.439 236.396 383.885 234.954 397.95 234.954C402.914 234.954 406.223 232.072 406.223 227.747C406.223 223.423 402.914 220.54 397.95 220.54C388.849 220.54 379.748 220.54 371.475 221.982C367.338 222.702 364.029 226.306 364.856 229.909C366.511 234.234 369.82 236.396 373.957 236.396Z" fill="black" data-v-0f638f12="" data-v-3aa7d81a=""></path> <path d="M48.8128 236.395C56.2588 235.674 64.5322 234.953 71.9782 235.674C76.9423 235.674 80.2516 232.791 80.2516 228.467C80.2516 224.143 76.9423 221.26 71.9782 221.26C62.8775 221.26 53.7768 221.26 45.5034 222.701C41.3667 223.422 38.0574 227.025 38.8847 230.629C39.712 234.233 43.8487 237.116 48.8128 236.395Z" fill="black" data-v-0f638f12="" data-v-3aa7d81a=""></path> <path d="M263.093 414.412C258.957 413.691 254.82 416.574 253.993 420.898C253.165 428.106 251.511 434.592 249.029 440.358C247.374 443.961 249.856 448.286 253.993 449.727C258.129 451.168 263.093 449.006 264.748 445.403C267.23 438.196 269.712 430.988 270.539 423.06C270.539 418.736 267.23 415.133 263.093 414.412Z" fill="black" data-v-0f638f12="" data-v-3aa7d81a=""></path> <path d="M257.302 371.89C253.165 372.61 249.856 376.935 251.511 380.538C253.165 387.025 254.82 393.511 254.82 400.718C254.82 404.322 258.957 407.205 263.093 407.205C268.057 407.205 271.367 403.601 271.367 399.277C270.539 391.349 269.712 383.421 267.23 376.214C265.575 373.331 261.439 371.169 257.302 371.89Z" fill="black" data-v-0f638f12="" data-v-3aa7d81a=""></path> <path d="M263.093 74.9551C258.957 74.2344 254.82 77.1173 253.993 81.4416C253.165 88.6487 251.511 95.1352 249.029 100.901C247.374 104.505 249.856 108.829 253.993 110.27C258.129 111.712 263.093 109.55 264.748 105.946C267.23 98.7388 269.712 91.5316 270.539 83.6037C270.539 78.5587 267.23 74.9551 263.093 74.9551Z" fill="black" data-v-0f638f12="" data-v-3aa7d81a=""></path> <path d="M250.684 40.3595C252.338 46.8459 253.993 53.3324 253.993 60.5396C253.993 64.1431 258.13 67.7467 263.094 67.026C268.058 67.026 271.367 63.4224 270.54 59.0981C269.712 51.1702 268.885 43.2423 266.403 36.0352C265.576 32.4316 260.612 29.5487 256.475 30.9902C252.338 33.1523 249.856 36.7559 250.684 40.3595Z" fill="black" data-v-0f638f12="" data-v-3aa7d81a=""></path></svg></g></svg>