<svg xmlns="http://www.w3.org/2000/svg" width="20" height="20" aria-labelledby="element" role="presentation" data-v-0f638f12=""><title id="element" lang="en" data-v-0f638f12="">element icon</title> <g fill="currentColor" data-v-0f638f12=""><svg viewBox="0 0 432 483" fill="none" xmlns="http://www.w3.org/2000/svg" data-v-0f638f12="" data-v-3aa7d81a=""><path d="M215.608 482.431C336.763 482.431 431.644 445.939 431.644 398.499C431.644 387.551 425.075 375.873 421.426 372.224C421.39 372.08 421.377 371.987 421.361 371.896C421.038 370.126 419.302 368.614 223.637 3.64925C222.177 1.4597 219.987 0 217.068 0C214.149 0 211.959 1.4597 210.499 3.64925L1.03216 392.66C0.302314 394.119 -0.427537 396.309 0.302314 397.769V399.228C-0.427537 445.939 94.4531 482.431 215.608 482.431ZM217.068 23.3552L392.232 349.599C390.043 348.139 387.853 346.679 384.934 345.949C381.284 344.49 376.905 345.949 375.446 349.599C373.986 353.248 375.446 357.627 379.095 359.087C380.593 359.919 382.052 360.713 383.474 361.486C388.288 364.105 392.667 366.487 396.611 369.304C398.801 370.764 400.99 370.764 403.18 370.034C404.396 372.224 405.207 373.846 405.829 375.089C407.072 377.576 407.559 378.549 409.019 379.522C409.282 381.102 410.305 382.681 411.505 384.535C413.632 387.82 416.317 391.966 416.317 398.499C416.317 432.072 335.304 467.834 214.878 467.834C94.4531 467.834 14.1695 432.072 14.1695 398.499C15.1698 397.748 15.8274 396.741 16.7295 395.359C18.46 392.708 21.0903 388.679 28.7665 382.442C31.6859 380.252 32.4157 375.143 29.4963 372.224L28.0366 370.764L217.068 23.3552Z" fill="black" data-v-0f638f12="" data-v-3aa7d81a=""></path> <path d="M215.608 482.431C336.763 482.431 431.644 445.939 431.644 398.499C431.644 387.551 425.075 375.873 421.426 372.224C421.39 372.08 421.377 371.987 421.361 371.896C421.038 370.126 419.302 368.614 223.637 3.64925C222.177 1.4597 219.987 0 217.068 0C214.149 0 211.959 1.4597 210.499 3.64925L1.03216 392.66C0.302314 394.119 -0.427537 396.309 0.302314 397.769V399.228C-0.427537 445.939 94.4531 482.431 215.608 482.431ZM217.068 23.3552L392.232 349.599C390.043 348.139 387.853 346.679 384.934 345.949C381.284 344.49 376.905 345.949 375.446 349.599C373.986 353.248 375.446 357.627 379.095 359.087C380.593 359.919 382.052 360.713 383.474 361.486C388.288 364.105 392.667 366.487 396.611 369.304C398.801 370.764 400.99 370.764 403.18 370.034C404.396 372.224 405.207 373.846 405.829 375.089C407.072 377.576 407.559 378.549 409.019 379.522C409.282 381.102 410.305 382.681 411.505 384.535C413.632 387.82 416.317 391.966 416.317 398.499C416.317 432.072 335.304 467.834 214.878 467.834C94.4531 467.834 14.1695 432.072 14.1695 398.499C15.1698 397.748 15.8274 396.741 16.7295 395.359C18.46 392.708 21.0903 388.679 28.7665 382.442C31.6859 380.252 32.4157 375.143 29.4963 372.224L28.0366 370.764L217.068 23.3552Z" stroke="black" data-v-0f638f12="" data-v-3aa7d81a=""></path> <path d="M254.29 330.622C261.589 331.352 268.887 331.352 275.456 332.082C279.105 332.812 282.755 329.892 283.484 325.513C284.214 321.864 281.295 318.215 276.916 317.485C269.617 316.755 262.319 316.025 255.02 315.295C250.641 315.295 247.722 318.215 246.992 321.864C246.992 326.973 249.911 330.622 254.29 330.622Z" fill="black" data-v-0f638f12="" data-v-3aa7d81a=""></path> <path d="M297.352 335.732C304.65 337.191 311.949 337.921 318.517 339.381C322.167 340.111 326.546 337.921 327.275 333.542C328.005 329.893 325.816 325.514 321.437 324.784C314.138 323.324 306.84 321.865 299.541 321.135C295.892 320.405 291.513 323.324 291.513 326.973C290.783 331.353 292.973 335.002 297.352 335.732Z" fill="black" data-v-0f638f12="" data-v-3aa7d81a=""></path> <path d="M84.9651 353.248C91.5337 351.058 98.1024 348.139 105.401 346.679C109.05 345.219 111.24 341.57 110.51 337.921C109.78 334.271 105.401 332.082 101.752 332.812C94.4531 335.001 87.1546 337.191 80.586 340.11C76.9367 341.57 74.7472 345.949 76.2069 349.598C76.9367 352.518 81.3158 354.707 84.9651 353.248Z" fill="black" data-v-0f638f12="" data-v-3aa7d81a=""></path> <path d="M168.168 332.812C175.467 332.082 182.765 331.352 189.334 330.622C193.713 330.622 196.632 326.973 195.902 322.594C195.902 318.215 192.253 315.295 187.874 316.025C180.576 316.755 173.277 317.485 165.979 318.215C162.329 318.945 159.41 322.594 159.41 326.243C160.87 330.622 164.519 333.542 168.168 332.812Z" fill="black" data-v-0f638f12="" data-v-3aa7d81a=""></path> <path d="M211.229 329.892C220.717 329.892 223.637 329.892 233.125 329.892C237.504 329.892 240.423 326.973 240.423 322.594C240.423 318.215 237.504 315.295 233.125 315.295C220.717 315.295 211.959 315.295 211.229 315.295C206.85 315.295 203.931 318.944 203.931 322.594C203.931 326.973 206.85 329.892 211.229 329.892Z" fill="black" data-v-0f638f12="" data-v-3aa7d81a=""></path> <path d="M46.2828 371.494C52.1216 367.845 58.6902 364.926 65.2589 362.006C68.9081 360.547 70.3678 356.167 68.9081 352.518C67.4484 348.869 63.0693 347.409 59.4201 348.869C52.1216 352.518 45.5529 355.438 39.7141 359.087C36.0648 361.276 35.335 365.655 36.7947 369.305C38.2544 372.224 42.6335 372.954 46.2828 371.494Z" fill="black" data-v-0f638f12="" data-v-3aa7d81a=""></path> <path d="M338.953 344.49C346.251 346.679 352.82 348.869 359.389 351.059C363.038 352.518 367.417 350.329 368.877 346.679C370.336 343.03 368.147 338.651 364.498 337.191C357.929 335.002 350.631 332.082 343.332 330.623C339.683 329.893 335.304 332.082 334.574 335.732C333.114 339.381 335.304 343.03 338.953 344.49Z" fill="black" data-v-0f638f12="" data-v-3aa7d81a=""></path> <path d="M125.837 340.84C132.405 339.381 139.704 337.921 147.002 336.461C150.652 335.731 153.571 332.082 152.841 327.703C152.111 324.054 148.462 321.134 144.083 321.864C136.784 323.324 129.486 324.784 122.187 326.243C118.538 326.973 115.619 331.352 117.079 335.002C117.808 339.381 122.187 341.57 125.837 340.84Z" fill="black" data-v-0f638f12="" data-v-3aa7d81a=""></path></svg></g></svg>