<svg xmlns="http://www.w3.org/2000/svg" width="20" height="20" aria-labelledby="element" role="presentation" data-v-0f638f12=""><title id="element" lang="en" data-v-0f638f12="">element icon</title> <g fill="currentColor" data-v-0f638f12=""><svg viewBox="0 0 277 454" fill="none" xmlns="http://www.w3.org/2000/svg" data-v-0f638f12="" data-v-3aa7d81a=""><path d="M54.3233 370.19C54.8348 370.19 55.3542 370.116 55.8684 369.963C60.683 368.529 65.8299 367.21 71.1719 366.05C74.0854 365.412 75.9338 362.538 75.2983 359.622C74.6603 356.705 71.7915 354.86 68.8726 355.493C63.267 356.716 57.8538 358.103 52.7834 359.616C49.9252 360.465 48.2983 363.476 49.15 366.335C49.8487 368.676 51.9977 370.19 54.3233 370.19Z" fill="black" stroke="black" stroke-width="4" data-v-0f638f12="" data-v-3aa7d81a=""></path> <path d="M182.207 361.947C187.538 362.617 192.827 363.424 197.924 364.352C198.251 364.415 198.576 364.441 198.897 364.441C201.457 364.441 203.73 362.617 204.205 360.012C204.74 357.074 202.794 354.264 199.86 353.731C194.568 352.766 189.078 351.922 183.546 351.231C180.582 350.883 177.888 352.961 177.519 355.919C177.147 358.878 179.246 361.578 182.207 361.947Z" fill="black" stroke="black" stroke-width="4" data-v-0f638f12="" data-v-3aa7d81a=""></path> <path d="M223.532 370.522C228.816 372.157 233.749 373.965 238.192 375.89C238.891 376.196 239.621 376.338 240.338 376.338C242.424 376.338 244.412 375.126 245.296 373.09C246.482 370.353 245.227 367.173 242.49 365.987C237.689 363.904 232.383 361.958 226.728 360.207C223.877 359.326 220.853 360.919 219.972 363.767C219.089 366.614 220.684 369.641 223.532 370.522Z" fill="black" stroke="black" stroke-width="4" data-v-0f638f12="" data-v-3aa7d81a=""></path> <path d="M96.6479 361.736C96.8641 361.736 97.0803 361.726 97.2992 361.699C102.449 361.082 107.788 360.576 113.17 360.191C116.144 359.98 118.385 357.401 118.174 354.427C117.963 351.453 115.421 349.206 112.405 349.423C106.852 349.813 101.339 350.335 96.0125 350.973C93.0515 351.332 90.9395 354.016 91.2954 356.98C91.6223 359.722 93.9532 361.736 96.6479 361.736Z" fill="black" stroke="black" stroke-width="4" data-v-0f638f12="" data-v-3aa7d81a=""></path> <path d="M139.761 359.305C145.166 359.321 150.495 359.453 155.723 359.69C155.808 359.695 155.892 359.695 155.977 359.695C158.845 359.695 161.234 357.438 161.366 354.543C161.503 351.564 159.196 349.038 156.219 348.901C150.838 348.653 145.356 348.521 139.793 348.505C139.787 348.505 139.782 348.505 139.777 348.505C136.802 348.505 134.385 350.915 134.377 353.889C134.369 356.874 136.779 359.295 139.761 359.305Z" fill="black" stroke="black" stroke-width="4" data-v-0f638f12="" data-v-3aa7d81a=""></path> <path d="M138.796 451.1C227.129 451.1 274.79 424.67 274.79 399.8C274.79 399.601 274.732 399.408 274.727 399.211C274.733 399.101 274.79 399.009 274.79 398.898V54.2C274.79 29.3305 227.129 2.89999 138.796 2.89999C50.4631 2.89999 2.79913 29.3305 2.79913 54.2V398.898C2.79913 399.058 2.87657 399.192 2.89012 399.349C2.87662 399.506 2.79913 399.64 2.79913 399.8C2.79913 424.67 50.4631 451.1 138.796 451.1ZM138.796 13.7C212.574 13.7 263.99 35.0416 263.99 54.2C263.99 73.3584 212.574 94.7 138.796 94.7C65.0151 94.7 13.5991 73.3584 13.5991 54.2C13.5991 35.0416 65.0152 13.7 138.796 13.7ZM13.5991 398.898V388.782C14.3816 389.192 15.2122 389.469 16.075 389.469C17.425 389.469 18.775 388.968 19.8245 387.956C22.8435 385.045 26.8909 382.208 31.8505 379.534C34.4767 378.121 35.4549 374.846 34.0416 372.22C32.6284 369.599 29.3509 368.608 26.7247 370.032C21.5153 372.837 17.1422 375.874 13.5992 379.054V74.4751C32.2233 91.5913 74.7582 105.5 138.796 105.5C202.833 105.5 245.366 91.5913 263.99 74.4751V380.269C262.322 379.914 260.533 380.257 259.196 381.512C257.018 383.547 256.905 386.964 258.941 389.142C262.292 392.728 263.99 396.314 263.99 399.8C263.99 418.958 212.574 440.3 138.796 440.3C65.0152 440.3 13.5992 418.958 13.5992 399.8C13.5992 399.64 13.5218 399.506 13.5082 399.349C13.5217 399.192 13.5991 399.058 13.5991 398.898Z" fill="black" stroke="black" stroke-width="4" data-v-0f638f12="" data-v-3aa7d81a=""></path></svg></g></svg>