<svg data-v-0f638f12="" xmlns="http://www.w3.org/2000/svg" width="36" height="36" aria-labelledby="element" role="presentation"><title data-v-0f638f12="" id="element" lang="en">element icon</title> <g data-v-0f638f12="" fill="#bbbec1"><svg data-v-8452180c="" data-v-fb6dcfa4="" xmlns="http://www.w3.org/2000/svg" xmlns:xlink="http://www.w3.org/1999/xlink" version="1.1" viewBox="0 0 350 350" xml:space="preserve" data-v-0f638f12=""><g data-v-8452180c="" id="icon" transform="translate(-1.9444444444444287 -1.9444444444444287) scale(3.89 3.89)"><path data-v-8452180c="" d="M 82.27 17.847 c 0.149 0 0.27 0.121 0.27 0.27 v 46.165 H 7.459 V 18.117 c 0 -0.149 0.121 -0.27 0.27 -0.27 H 82.27 M 82.27 14.764 H 7.73 c -1.852 0 -3.353 1.501 -3.353 3.353 v 49.247 h 81.246 V 18.117 C 85.623 16.265 84.122 14.764 82.27 14.764 L 82.27 14.764 z" transform=" matrix(1 0 0 1 0 0) " stroke-linecap="round"></path> <path data-v-8452180c="" d="M 88.293 70.108 c 0 1.89 -1.532 3.421 -3.421 3.421 H 5.128 c -1.89 0 -3.421 -1.532 -3.421 -3.421" transform=" matrix(1 0 0 1 0 0) " stroke-linecap="round"></path> <path data-v-8452180c="" d="M 84.872 75.236 H 5.128 C 2.3 75.236 0 72.935 0 70.107 h 3.414 c 0 0.946 0.769 1.715 1.714 1.715 h 79.744 c 0.946 0 1.715 -0.769 1.715 -1.715 H 90 C 90 72.935 87.699 75.236 84.872 75.236 z" transform=" matrix(1 0 0 1 0 0) " stroke-linecap="round"></path></g></svg></g></svg>