<svg xmlns="http://www.w3.org/2000/svg" width="20" height="20" aria-labelledby="element" role="presentation" data-v-0f638f12=""><title id="element" lang="en" data-v-0f638f12="">element icon</title> <g fill="currentColor" data-v-0f638f12=""><svg viewBox="0 0 487 503" fill="none" xmlns="http://www.w3.org/2000/svg" data-v-0f638f12="" data-v-3aa7d81a=""><path d="M170.198 274.791L189.989 263.373C193.795 261.089 194.556 256.522 193.034 252.716C190.75 248.91 186.183 248.149 182.377 249.671L162.586 261.089C158.78 263.373 158.019 267.94 159.542 271.746C161.825 275.552 166.392 277.074 170.198 274.791Z" fill="black" data-v-0f638f12="" data-v-3aa7d81a=""></path> <path d="M209.782 251.955L229.573 240.537C233.379 238.253 234.14 233.686 232.618 229.88C230.334 226.074 225.767 225.313 221.961 226.835L202.17 238.253C198.364 240.537 197.603 245.104 199.125 248.91C201.409 252.716 205.976 254.238 209.782 251.955Z" fill="black" data-v-0f638f12="" data-v-3aa7d81a=""></path> <path d="M5.01975 366.896L239.467 501.627C241.751 503.149 244.796 503.149 247.079 501.627L482.288 366.134C486.094 363.851 487.617 359.284 484.572 355.478L249.363 3.04478C249.363 3.04478 249.363 3.04478 248.602 3.04478C247.079 1.52239 244.796 0 242.512 0C240.229 0 237.945 1.52239 236.423 3.04478C236.423 3.04478 236.423 3.04478 235.662 3.04478L1.21378 354.716C-1.0698 358.522 -0.308608 364.612 5.01975 366.896ZM235.662 481.836L23.2884 359.284L31.6615 354.716C35.4675 352.433 36.2287 347.866 34.7063 344.06C33.9451 342.537 31.6615 341.015 30.1392 340.254L235.662 32.7313V481.836ZM250.885 481.836V237.493L261.542 243.582C265.348 245.866 269.915 244.343 272.199 240.537C274.482 236.731 272.96 232.164 269.154 229.881L250.885 219.224V32.7313L454.885 337.209L447.273 332.642C443.467 330.358 438.9 331.881 436.617 335.687C434.333 339.493 435.856 344.06 439.662 346.343L459.453 357.761C461.736 359.284 465.542 359.284 467.826 357V357.761L250.885 481.836Z" fill="black" data-v-0f638f12="" data-v-3aa7d81a=""></path> <path d="M91.0348 320.462L110.826 309.044C114.632 306.761 115.393 302.194 113.871 298.388C112.348 294.582 107.02 293.82 103.214 295.343L83.4228 306.761C79.6169 309.044 78.8557 313.611 80.3781 317.417C82.6616 321.223 87.2288 322.746 91.0348 320.462Z" fill="black" data-v-0f638f12="" data-v-3aa7d81a=""></path> <path d="M130.617 297.626L150.408 286.208C154.214 283.925 154.975 279.358 153.452 275.552C151.169 271.746 146.602 270.985 142.796 272.507L123.005 283.925C119.199 286.208 118.437 290.776 119.96 294.582C122.243 298.388 126.811 299.91 130.617 297.626Z" fill="black" data-v-0f638f12="" data-v-3aa7d81a=""></path> <path d="M308.736 252.717L288.945 241.299C285.139 239.015 280.572 240.538 278.288 244.344C276.005 248.149 277.527 252.717 281.333 255L301.124 266.418C304.93 268.702 309.497 267.179 311.781 263.373C313.303 259.567 311.781 255 308.736 252.717Z" fill="black" data-v-0f638f12="" data-v-3aa7d81a=""></path> <path d="M348.318 275.552L328.527 264.135C324.721 261.851 320.153 263.373 317.87 267.179C315.586 270.985 317.109 275.552 320.915 277.836L340.706 289.254C344.512 291.538 349.079 290.015 351.362 286.209C352.885 282.403 351.362 277.836 348.318 275.552Z" fill="black" data-v-0f638f12="" data-v-3aa7d81a=""></path> <path d="M50.6911 343.298L70.4822 331.88C74.2882 329.597 75.0494 325.029 73.527 321.223C72.0046 317.417 66.6762 316.656 62.8703 318.179L43.0792 329.597C39.2732 331.88 38.512 336.447 40.0344 340.253C43.0792 344.059 47.6464 345.582 50.6911 343.298Z" fill="black" data-v-0f638f12="" data-v-3aa7d81a=""></path> <path d="M387.901 298.388L368.11 286.97C364.304 284.687 359.737 286.209 357.453 290.015C355.17 293.821 356.692 298.388 360.498 300.672L380.289 312.09C384.095 314.373 388.662 312.851 390.946 309.045C392.468 305.239 390.946 300.672 387.901 298.388Z" fill="black" data-v-0f638f12="" data-v-3aa7d81a=""></path> <path d="M427.483 321.224L407.692 309.806C403.886 307.523 399.319 309.045 397.035 312.851C394.752 316.657 396.274 321.224 400.08 323.508L419.871 334.926C423.677 337.209 428.244 335.687 430.528 331.881C432.05 328.075 430.528 322.747 427.483 321.224Z" fill="black" data-v-0f638f12="" data-v-3aa7d81a=""></path></svg></g></svg>