<svg xmlns="http://www.w3.org/2000/svg" width="20" height="20" aria-labelledby="element" role="presentation" data-v-0f638f12=""><title id="element" lang="en" data-v-0f638f12="">element icon</title> <g fill="currentColor" data-v-0f638f12=""><svg id="Capa_1" enable-background="new 0 0 533.886 533.886" viewBox="0 0 533.886 533.886" xmlns="http://www.w3.org/2000/svg" data-v-0f638f12=""><g data-v-0f638f12=""><path d="m266.942 337.361c-24.213.001-48.418-5.919-70.49-17.757l-159.156-85.37c-23.079-12.378-37.367-36.316-37.292-62.471.076-26.155 14.503-50.009 37.653-62.255l159.557-84.397c43.662-23.094 95.794-23.094 139.456 0l159.557 84.397c23.15 12.245 37.577 36.099 37.653 62.255.075 26.155-14.213 50.093-37.291 62.471l-159.158 85.37c-22.065 11.838-46.281 17.755-70.489 17.757zm0-287.857c-17.251 0-34.501 4.159-50.226 12.477l-159.555 84.398c-9.64 5.099-15.415 14.635-15.446 25.506s5.687 20.44 15.298 25.595l159.157 85.369c31.795 17.054 69.755 17.054 101.549 0l159.158-85.369c9.611-5.155 15.329-14.723 15.298-25.595s-5.806-20.407-15.446-25.506l-159.561-84.398c-15.725-8.317-32.975-12.477-50.226-12.477zm-59.976-5.958h.01zm130.466 464.792 185.452-99.47c10.15-5.444 13.965-18.086 8.521-28.235-5.444-10.15-18.085-13.965-28.235-8.521l-185.453 99.47c-31.792 17.054-69.753 17.054-101.629-.043l-185.452-98.427c-10.176-5.4-22.799-1.529-28.197 8.644-5.4 10.174-1.53 22.797 8.644 28.197l185.37 98.384c22.072 11.839 46.277 17.757 70.49 17.757 24.207.001 48.423-5.919 70.489-17.756zm0-93.845 185.452-99.47c10.15-5.444 13.965-18.086 8.521-28.235-5.444-10.151-18.085-13.964-28.235-8.521l-185.453 99.47c-31.792 17.055-69.753 17.053-101.629-.043l-185.452-98.427c-10.176-5.4-22.799-1.529-28.197 8.644-5.4 10.174-1.53 22.797 8.644 28.197l185.37 98.384c22.072 11.839 46.277 17.757 70.49 17.757 24.207 0 48.423-5.919 70.489-17.756z" data-v-0f638f12=""></path></g></svg></g></svg>